<svg xmlns="http://www.w3.org/2000/svg" version="1.1" xmlns:xlink="http://www.w3.org/1999/xlink" width="1000" height="1000"><g clip-path="url(#SvgjsClipPath1222)"><rect width="1000" height="1000" fill="#000000"></rect><g transform="matrix(0.9523809523809523,0,0,0.9523809523809523,206.66666666666669,150)"><svg xmlns="http://www.w3.org/2000/svg" version="1.1" xmlns:xlink="http://www.w3.org/1999/xlink" width="616" height="735"><svg width="616" height="735" viewBox="0 0 616 735" fill="none" xmlns="http://www.w3.org/2000/svg">
<path d="M172.785 410.383C201.769 373.447 289.287 311.118 407.482 357.288C525.678 403.458 562.922 380.629 566.769 363.444L599.858 400.38C589.085 413.461 560.459 441.163 532.141 447.319C503.824 453.475 386.962 446.806 349.77 444.241C346.179 447.576 339.151 459.169 339.766 478.869C342.518 566.929 447.168 631.29 429.798 732.034C428.108 731.888 426.308 731.73 424.411 731.561C389.742 728.47 322.408 721.711 292.057 715.875C252.043 708.18 111.225 445.011 172.785 410.383Z" fill="white"></path>
<path d="M429.798 732.034C428.108 731.888 426.308 731.73 424.411 731.561M429.798 732.034L424.411 731.561M429.798 732.034C447.168 631.29 342.518 566.929 339.766 478.869C339.151 459.169 346.179 447.576 349.77 444.241C386.962 446.806 503.824 453.475 532.141 447.319C560.459 441.163 589.085 413.461 599.858 400.38L566.769 363.444C562.922 380.629 525.678 403.458 407.482 357.288C289.287 311.118 201.769 373.447 172.785 410.383C111.225 445.011 252.043 708.18 292.057 715.875C322.408 721.711 389.742 728.47 424.411 731.561" stroke="white" stroke-width="4"></path>
<path d="M2.72504 425.003C-2.19976 356.672 19.1412 302.396 31.1967 283.415L45.8172 251.866C180.736 255.713 450.266 264.794 449.035 270.334C447.804 275.874 468.016 288.032 478.276 293.419L584.467 354.979C566.615 356.21 562.665 377.038 562.921 387.298C528.807 391.658 448.727 394.839 401.326 372.677C353.925 350.516 308.73 352.157 292.057 355.748C230.497 368.83 205.873 396.532 195.1 441.163C184.327 485.794 198.948 538.89 247.426 603.528C286.209 655.238 295.392 700.485 295.135 716.644C189.714 720.492 89.6787 639.694 45.8172 572.748C10.728 519.19 2.46859 451.936 2.72504 425.003Z" fill="#FE6310" stroke="#FE6310" stroke-width="4"></path>
<path d="M249.735 26.3585C263.278 35.5925 255.378 106.722 252.813 136.22L191.253 200.005L188.175 184.106L186.636 173.333C186.636 127.163 228.958 27.8975 235.884 19.433C242.809 10.9685 232.806 14.816 249.735 26.3585Z" fill="white"></path>
<path d="M195.1 192.571L191.253 200.005M191.253 200.005L252.813 136.22C255.378 106.722 263.278 35.5925 249.735 26.3585C232.806 14.816 242.809 10.9685 235.884 19.433C228.958 27.8975 186.636 127.163 186.636 173.333L188.175 184.106L191.253 200.005Z" stroke="white" stroke-width="4"></path>
<path d="M338.227 147.984L385.936 180.303C389.784 142.341 397.325 63.0307 396.709 49.4875C396.093 35.9443 386.706 18.7075 382.089 11.782C354.387 51.796 341.305 119.256 338.227 147.984Z" fill="white" stroke="white" stroke-width="4"></path>
<path d="M60.4375 206.465C123.844 61.7994 202.026 13.5774 232.806 8.70391C214.636 26.6589 182.666 94.2749 182 202.005C185.515 204.562 184.555 202.846 188.175 206.465L193.561 192.614C216.338 186.458 242.553 148.496 252.813 130.285L268.972 134.902L270.511 67.9554C292.673 37.1754 350.539 11.7819 376.702 4.08691C337.919 53.3349 331.045 117.203 332.071 141.827C352.386 144.29 389.014 181.072 406.713 197.231C385.167 197.744 339.612 198.463 329.763 197.231C319.913 196 310.782 202.874 307.447 206.465H188.175C184.555 202.846 185.515 204.562 182 202.005C149.639 178.466 122.324 197.357 111.912 211.239L60.4375 206.465Z" fill="#FE6310"></path>
<path d="M188.175 206.465H307.447C310.782 202.874 319.913 196 329.763 197.231C339.612 198.463 385.167 197.744 406.713 197.231C389.014 181.072 352.386 144.29 332.071 141.827C331.045 117.203 337.919 53.3349 376.702 4.08691C350.539 11.7819 292.673 37.1754 270.511 67.9554L268.972 134.902L252.813 130.285C242.553 148.496 216.338 186.458 193.561 192.614L188.175 206.465ZM188.175 206.465C184.555 202.846 185.515 204.562 182 202.005M182 202.005C149.639 178.466 122.324 197.357 111.912 211.239L60.4375 206.465C123.844 61.7994 202.026 13.5774 232.806 8.70391C214.636 26.6589 182.666 94.2749 182 202.005Z" stroke="#FE6310" stroke-width="4"></path>
<path d="M257.035 22.5564C249.862 7.31468 240.586 5.62593 234.174 7.93443C198.469 43.0244 180.565 147.472 178 194.924L186.635 201.08L192.022 190.307C188.174 175.687 201.256 100.276 213.568 66.4176C223.417 39.3312 235.114 21.7869 240.501 19.4784C261.431 37.3308 258.456 101.302 252.813 127.978L265.5 137.98C271.656 47.9484 263.191 35.637 257.035 22.5564Z" fill="#012A3D" stroke="#012A3D" stroke-width="4"></path>
<path d="M381.5 2.00488C340.167 59.7415 330.993 118.494 331.5 141.505L343.897 143.782L345.416 121.032C347.848 85.8882 374.035 33.9566 384.926 16.6984C393.436 32.3877 390.751 133.707 387.205 175.284L395.563 183.005C398.602 179.867 401.642 119.463 400.882 59.8441C400.274 12.1486 386.819 1.74339 381.5 2.00488Z" fill="#012A3D" stroke="#012A3D" stroke-width="4"></path>
<path d="M30.4272 280.338L31.1967 229.551C31.1967 229.551 33.3513 208.004 54.2818 208.004C75.2122 208.004 100.452 208.517 110.455 208.774C123.024 195.949 156.01 178.148 187.405 209.543H303.6C298.213 213.648 295.905 225.395 295.905 239.554V263.409C298.674 279.518 302.826 311.289 329.741 311.887H331.302C330.773 311.899 330.253 311.898 329.741 311.887H285.901C275.898 310.605 255.583 302.653 254.352 281.107H188.175C174.837 295.215 139.696 314.965 105.838 281.107H30.4272V280.338Z" fill="#012A3D"></path>
<path d="M30.4272 280.338L31.1967 229.551C31.1967 229.551 33.3513 208.005 54.2818 208.005C75.2122 208.005 100.452 208.517 110.455 208.774C123.024 195.949 156.01 178.148 187.405 209.543H303.6C298.213 213.648 295.905 225.395 295.905 239.554C295.905 253.713 295.905 261.357 295.905 263.409C298.726 279.825 302.984 312.503 331.302 311.887H285.901C275.898 310.605 255.583 302.653 254.352 281.107H188.175C174.837 295.215 139.696 314.965 105.838 281.107H30.4272V280.338Z" stroke="#012A3D" stroke-width="4"></path>
<circle cx="147.391" cy="246.479" r="36.3225" stroke="white" stroke-width="12"></circle>
<circle cx="223.572" cy="245.71" r="9.234" fill="white"></circle>
<circle cx="258.969" cy="245.71" r="9.234" fill="white"></circle>
<path d="M417.517 201.079H330.564C304.093 201.079 298.501 220.573 299.014 230.32L299.784 266.487C299.784 303.423 324.408 311.631 336.72 311.118H401.358C416.748 312.144 442.264 311.579 449.035 291.88C455.807 272.181 463.656 268.282 466.734 268.795C469.555 268.795 476.737 272.489 482.893 287.263C489.049 302.038 503.028 305.475 506.363 306.501H531.372C575.044 306.501 567.57 267.552 567.57 238.785C567.57 209.236 542.433 201.336 529.864 201.079H417.517Z" fill="#7ADAFF" stroke="white" stroke-width="10"></path>
<path d="M392.092 308.809L334.38 202.618H350.539L402.865 308.809H392.092Z" fill="white"></path>
<path d="M435.184 302.653L382.858 204.927H392.092L439.801 301.114L435.184 302.653Z" fill="white"></path>
<path d="M544.453 302.653L495.975 204.927H501.361L549.07 301.114L544.453 302.653Z" fill="white"></path>
<path d="M392.092 308.809L334.38 202.618H350.539L402.865 308.809H392.092Z" stroke="white" stroke-width="4"></path>
<path d="M435.184 302.653L382.858 204.927H392.092L439.801 301.114L435.184 302.653Z" stroke="white" stroke-width="4"></path>
<path d="M544.453 302.653L495.975 204.927H501.361L549.07 301.114L544.453 302.653Z" stroke="white" stroke-width="4"></path>
<path d="M612.416 376.268C608.432 369.041 609.229 367.434 591.701 358.599C572.58 353.779 561.427 379.481 567.801 393.136C572.9 404.061 585.328 408.934 590.905 410.005C600.2 404.65 619.666 389.416 612.416 376.268Z" fill="#BE1622" stroke="#BE1622" stroke-width="4"></path>
<path d="M142.578 132.58L142.062 132.37L141.612 132.698L134.711 137.73C129.53 141.508 122.512 141.546 117.289 137.825C110.588 133.051 109.026 123.748 113.8 117.047L131.031 92.8609C139.478 81.0054 155.936 78.2419 167.791 86.6883C179.647 95.1347 182.41 111.593 173.964 123.448C166.735 133.594 153.636 137.082 142.578 132.58Z" fill="#012A3D" stroke="#012A3D" stroke-width="2"></path>
<path d="M167 85.9986C175.314 72.6668 196.294 62.1344 209 68" stroke="#012A3D" stroke-width="9"></path>
<circle cx="152.5" cy="108.5" r="17.5" fill="white"></circle>
</svg></svg></g></g><defs><clipPath id="SvgjsClipPath1222"><rect width="1000" height="1000" x="0" y="0" rx="500" ry="500"></rect></clipPath></defs></svg>